<svg xmlns="http://www.w3.org/2000/svg" width="134" height="113" viewBox="0 0 134 113">
    <g fill="none" fill-rule="evenodd">
        <path fill="#898989" d="M117.47 40.107C70.177 53.49 61.213 3.684 61.213 3.684l-.026-.55a95.773 95.773 0 0 1 4.31-.09c10.702 0 19.405 1.558 27.532 5.698 7.713-3.006 19.368-5.373 23.849-6.975 3.204-1.152 4.609 1.665 4.564 3.996l-5.653 27.143a46.165 46.165 0 0 1 2.116 7.12l-.433.08zM62.724 67.179c-.306.36-.792.513-1.251.459a1.379 1.379 0 0 1-.891-.432l-4.32-4.797c-.692-.774-.062-1.9 1.063-1.9h8.37c1.097 0 1.736 1.09 1.08 1.864l-4.051 4.806z"/>
        <path fill="#FFF" d="M49.791 50.367a4.256 4.256 0 0 0-4.248-4.248 4.258 4.258 0 0 0-4.257 4.248 4.252 4.252 0 0 0 4.257 4.248 4.25 4.25 0 0 0 4.248-4.248m34.839 0a4.25 4.25 0 0 0-4.248-4.248 4.25 4.25 0 0 0-4.248 4.248 4.244 4.244 0 0 0 4.248 4.248 4.244 4.244 0 0 0 4.248-4.248M15.735 31.683L9.813 5.763c-.054-2.331 1.359-5.148 4.563-3.996 4.446 1.593 15.786 3.969 23.661 6.957 6.948-3.6 14.31-5.22 23.149-5.59l.026.55s8.964 49.806 56.259 36.423l.432-.081c.738 3.474 1.098 7.119 1.089 10.98-.09 29.88-23.949 46.377-53.496 46.377S12 80.886 12 51.006c0-7.02 1.323-13.51 3.735-19.323m45.738 35.955c.459.054.945-.1 1.251-.46l4.05-4.805c.657-.774.018-1.863-1.08-1.863h-8.37c-1.125 0-1.755 1.125-1.062 1.899l4.32 4.797c.234.252.558.405.891.432"/>
        <path fill="#898989" d="M45.543 46.119a4.256 4.256 0 0 1 4.248 4.248 4.25 4.25 0 0 1-4.248 4.248 4.252 4.252 0 0 1-4.257-4.248 4.258 4.258 0 0 1 4.257-4.248M80.382 46.119a4.25 4.25 0 0 1 4.248 4.248 4.244 4.244 0 0 1-4.248 4.248 4.244 4.244 0 0 1-4.248-4.248 4.25 4.25 0 0 1 4.248-4.248"/>
        <path stroke="#898989" stroke-linecap="round" stroke-linejoin="round" stroke-width="3" d="M115.788 32.906l5.652-27.144c.045-2.33-1.359-5.148-4.563-3.996-4.482 1.602-16.137 3.97-23.85 6.975M38.037 8.724c-7.875-2.988-19.215-5.364-23.66-6.957C11.171.615 9.758 3.432 9.812 5.763l5.922 25.92"/>
        <path stroke="#898989" stroke-linecap="round" stroke-linejoin="round" stroke-width="3" d="M113.241 27.416a46.631 46.631 0 0 1 2.547 5.49 46.052 46.052 0 0 1 2.115 7.12c.737 3.473 1.098 7.118 1.09 10.98-.09 29.88-23.95 46.376-53.497 46.376S12 80.885 12 51.005c0-7.02 1.323-13.509 3.735-19.323a46.727 46.727 0 0 1 3.051-6.074M61.473 67.638v6.597M49.323 70.185s11.7 10.8 26.1 0M30.423 13.592c2.52-1.917 5.04-3.528 7.614-4.869 6.949-3.6 14.31-5.22 23.149-5.589a95.773 95.773 0 0 1 4.31-.09c10.7 0 19.405 1.557 27.53 5.697a49.882 49.882 0 0 1 4.609 2.664M61.212 3.684s8.964 49.806 56.259 36.423M103.061 60.298l29.185-4.67M103.061 71.971l29.185 4.67M30.684 71.971L1.5 76.641M30.684 60.298L1.5 55.628"/>
        <path fill="#FFAF2E" d="M120.522 94.335c0 8.683-7.04 15.723-15.724 15.723-8.683 0-15.722-7.04-15.722-15.724 0-8.683 7.04-15.722 15.723-15.722s15.722 7.04 15.722 15.723"/>
        <path stroke="#FFF" stroke-width="4" d="M120.522 94.335c0 8.683-7.04 15.723-15.724 15.723-8.683 0-15.722-7.04-15.722-15.724 0-8.683 7.04-15.722 15.723-15.722s15.722 7.04 15.722 15.723z"/>
        <path fill="#FFF" d="M104.847 100.514c-.402-.34-.792-.676-1.188-1-.93-.766-1.875-1.51-2.791-2.29-.753-.64-1.47-1.322-2.091-2.096-.492-.612-.878-1.284-1.093-2.04-.286-1.004-.262-2.002.236-2.938.547-1.029 1.398-1.685 2.55-1.93.938-.202 1.743.084 2.478.651.553.43.985.972 1.397 1.53.17.231.32.475.486.723l.117-.18a8.21 8.21 0 0 1 1.787-2.073c.5-.41 1.07-.699 1.738-.71.908-.018 1.715.263 2.396.875a3.573 3.573 0 0 1 1.163 2.038c.13.707.06 1.4-.137 2.09-.321 1.117-1 2.008-1.77 2.844-.731.797-1.55 1.501-2.386 2.185-.932.761-1.875 1.508-2.814 2.261-.024.02-.05.038-.078.06"/>
        <path d="M-13-38h160v160H-13z"/>
    </g>
</svg>
