<svg xmlns="http://www.w3.org/2000/svg" xmlns:xlink="http://www.w3.org/1999/xlink" width="140" height="127" viewBox="0 0 140 127">
    <defs>
        <path id="a" d="M.53.546h96.744V81H.53z"/>
    </defs>
    <g fill="none" fill-rule="evenodd">
        <path d="M-10-16h160v160H-10z"/>
        <path fill="#FFF" d="M24.671 125.465c-.89 0-1.642-1.05-1.642-2.292v-72.87c0-1.242.752-2.292 1.642-2.292h90.461c.89 0 1.642 1.05 1.642 2.293v72.869c0 1.242-.752 2.292-1.642 2.292h-90.46z"/>
        <g transform="translate(21 45.965)">
            <mask id="b" fill="#fff">
                <use xlink:href="#a"/>
            </mask>
            <path fill="#898989" d="M94.132.546H3.672C1.936.546.528 2.244.528 4.338v72.87C.53 79.302 1.937 81 3.671 81h90.461c1.735 0 3.142-1.698 3.142-3.792V4.338c0-2.094-1.407-3.792-3.142-3.792m-.109 3c.092.1.251.371.251.792v72.87c0 .421-.159.693-.25.792H3.78c-.092-.099-.25-.37-.25-.792V4.338c0-.42.158-.693.25-.792h90.243M3.82 3.513h.004-.004" mask="url(#b)"/>
        </g>
        <path fill="#898989" d="M12.196 59.401h-8.55A2.135 2.135 0 0 1 2.3 55.603L69.218 1.968a2.14 2.14 0 0 1 2.672 0L97.687 22.77V8.2c0-1.179.957-2.135 2.137-2.135h14.96c1.182 0 2.139.956 2.139 2.134V38.92l20.582 16.683a2.132 2.132 0 0 1-1.347 3.798H12.196z"/>
        <path stroke="#FFF" stroke-linecap="round" stroke-linejoin="round" stroke-width="3" d="M12.196 59.401h-8.55A2.135 2.135 0 0 1 2.3 55.603L69.218 1.968a2.14 2.14 0 0 1 2.672 0L97.687 22.77V8.2c0-1.179.957-2.135 2.137-2.135h14.96c1.182 0 2.139.956 2.139 2.134V38.92l20.582 16.683a2.132 2.132 0 0 1-1.347 3.798H12.196z"/>
        <path fill="#FFF" d="M69.95 96.245c-.403-.34-.791-.675-1.189-1.001-.93-.764-1.874-1.51-2.79-2.29-.754-.64-1.47-1.321-2.092-2.095-.491-.612-.877-1.284-1.093-2.04-.285-1.003-.261-2.002.236-2.938.547-1.028 1.398-1.684 2.55-1.931.94-.201 1.743.085 2.478.652.555.43.987.972 1.398 1.53.17.23.32.475.486.723l.118-.181a8.206 8.206 0 0 1 1.785-2.072c.501-.41 1.072-.7 1.739-.711.908-.017 1.715.264 2.396.876.613.55 1.01 1.227 1.163 2.038.13.707.061 1.4-.138 2.09-.32 1.117-.998 2.008-1.767 2.844-.734.797-1.553 1.5-2.389 2.185-.93.76-1.874 1.508-2.813 2.26l-.079.06"/>
        <path fill="#FFAF2E" d="M85.624 90.065c0 8.684-7.039 15.723-15.723 15.723-8.682 0-15.722-7.04-15.722-15.723s7.04-15.722 15.722-15.722c8.684 0 15.723 7.039 15.723 15.722"/>
        <path stroke="#FFF" stroke-width="4" d="M85.624 90.065c0 8.684-7.039 15.723-15.723 15.723-8.682 0-15.722-7.04-15.722-15.723s7.04-15.722 15.722-15.722c8.684 0 15.723 7.039 15.723 15.722z"/>
        <path fill="#FFF" d="M69.95 96.245c-.403-.34-.791-.675-1.189-1.001-.93-.764-1.874-1.51-2.79-2.29-.754-.64-1.47-1.321-2.092-2.095-.491-.612-.877-1.284-1.093-2.04-.285-1.003-.261-2.002.236-2.938.547-1.028 1.398-1.684 2.55-1.931.94-.201 1.743.085 2.478.652.555.43.987.972 1.398 1.53.17.23.32.475.486.723l.118-.181a8.206 8.206 0 0 1 1.785-2.072c.501-.41 1.072-.7 1.739-.711.908-.017 1.715.264 2.396.876.613.55 1.01 1.227 1.163 2.038.13.707.061 1.4-.138 2.09-.32 1.117-.998 2.008-1.767 2.844-.734.797-1.553 1.5-2.389 2.185-.93.76-1.874 1.508-2.813 2.26l-.079.06"/>
    </g>
</svg>
