<svg xmlns="http://www.w3.org/2000/svg" width="143" height="142" viewBox="0 0 143 142">
    <g fill="none" fill-rule="evenodd">
        <path d="M-9-9h160v160H-9z"/>
        <path fill="#898989" d="M49.784 110.63C7.22 115.434 1.5 88.364 1.5 88.364c11.9 2.55 11.9-11.447 18.698-47.141l20.358-5.524"/>
        <path stroke="#FFF" stroke-linecap="round" stroke-linejoin="round" stroke-width="3" d="M49.784 110.63C7.22 115.434 1.5 88.364 1.5 88.364c11.9 2.55 11.9-11.447 18.698-47.141l20.358-5.524"/>
        <path fill="#FFF" d="M118.742 69.692c0 31.917-21.117 56.091-47.167 56.091s-47.167-24.174-47.167-56.09c0-31.918 21.117-57.792 47.167-57.792s47.167 25.874 47.167 57.791"/>
        <path stroke="#898989" stroke-linecap="round" stroke-linejoin="round" stroke-width="3" d="M118.742 69.692c0 31.917-21.117 56.091-47.167 56.091s-47.167-24.174-47.167-56.09c0-31.918 21.117-57.792 47.167-57.792s47.167 25.874 47.167 57.791z"/>
        <path fill="#898989" d="M92.98 110.63c42.564 4.803 48.284-22.267 48.284-22.267-11.897 2.55-11.897-11.447-18.696-47.141C115.768 5.527 84.162.694 68.176 2.978 50.329 5.527 55.428 9.777 38.43 11.477 21.434 13.176 1.887 40.372 24.408 53.97c22.52 13.598 59.916-8.5 59.916-8.5s18.697 23.798 28.046 25.497c9.347 1.7-19.39 39.664-19.39 39.664"/>
        <path stroke="#FFF" stroke-linecap="round" stroke-linejoin="round" stroke-width="3" d="M92.98 110.63c42.564 4.803 48.284-22.267 48.284-22.267-11.897 2.55-11.897-11.447-18.696-47.141C115.768 5.527 84.162.694 68.176 2.978 50.329 5.527 55.428 9.777 38.43 11.477 21.434 13.176 1.887 40.372 24.408 53.97c22.52 13.598 59.916-8.5 59.916-8.5s18.697 23.798 28.046 25.497c9.347 1.7-19.39 39.664-19.39 39.664z"/>
        <path fill="#898989" d="M90.698 79.04a4.249 4.249 0 1 1-4.249-4.25 4.25 4.25 0 0 1 4.249 4.25M55.853 79.04a4.249 4.249 0 1 1-8.498 0 4.25 4.25 0 1 1 8.498 0"/>
        <path stroke="#898989" stroke-linecap="round" stroke-linejoin="round" stroke-width="3" d="M53.303 98.715s15.598 12.673 33.146 0M67.326 81.165s-1.7 8.5-4.25 9.35c-2.549.848 1.7 3.398 4.25 3.398"/>
        <path fill="#FFF" d="M80.075 63.318s10.197-1.7 18.695 5.95"/>
        <path stroke="#898989" stroke-linecap="round" stroke-linejoin="round" stroke-width="3" d="M80.075 63.318s10.197-1.7 18.695 5.95"/>
        <path fill="#FFF" d="M56.278 63.318s-10.198-1.7-18.696 5.95"/>
        <path stroke="#898989" stroke-linecap="round" stroke-linejoin="round" stroke-width="3" d="M56.278 63.318s-10.198-1.7-18.696 5.95"/>
        <path fill="#FFAF2E" d="M125.444 123.722c0 8.684-7.039 15.723-15.722 15.723S94 132.406 94 123.722c0-8.684 7.039-15.722 15.722-15.722s15.722 7.038 15.722 15.722"/>
        <path stroke="#FFF" stroke-width="4" d="M125.117 124.083c0 8.684-7.04 15.723-15.723 15.723s-15.722-7.039-15.722-15.723c0-8.684 7.04-15.722 15.722-15.722 8.683 0 15.722 7.038 15.722 15.722z"/>
        <path fill="#FFF" d="M109.442 130.263c-.402-.34-.791-.676-1.187-1.001-.93-.765-1.876-1.51-2.792-2.289-.753-.64-1.47-1.322-2.09-2.096-.493-.612-.88-1.284-1.094-2.04-.285-1.004-.262-2.002.236-2.938.548-1.029 1.399-1.685 2.55-1.931.939-.2 1.744.084 2.478.652.554.43.986.972 1.398 1.531.17.23.32.474.486.722l.117-.181a8.19 8.19 0 0 1 1.787-2.072c.5-.41 1.07-.699 1.737-.711.908-.016 1.716.264 2.396.876a3.56 3.56 0 0 1 1.163 2.039c.13.706.062 1.399-.136 2.089-.322 1.118-1 2.008-1.77 2.844-.732.797-1.55 1.501-2.386 2.185-.932.761-1.875 1.508-2.814 2.26-.024.021-.051.04-.08.061"/>
    </g>
</svg>
